<svg width="800" height="480" viewBox="0 0 800 480" fill="none" xmlns="http://www.w3.org/2000/svg">
  <g filter="url(#filter0_d)">
    <path d="M200 80C200 64.5367 212.537 52 228 52H572C587.464 52 600 64.5368 600 80V320C600 335.464 587.463 348 572 348H228C212.536 348 200 335.463 200 320V80Z" fill="white"/>
  </g>
  <rect x="220" y="92" width="360" height="24" rx="8" fill="#E2E8F0"/>
  <rect x="220" y="132" width="240" height="16" rx="8" fill="#EDF2F7"/>
  <rect x="220" y="164" width="320" height="16" rx="8" fill="#EDF2F7"/>
  <rect x="220" y="196" width="280" height="16" rx="8" fill="#EDF2F7"/>
  <rect x="220" y="244" width="120" height="36" rx="8" fill="#4F46E5"/>
  <circle cx="580" cy="88" r="28" fill="#4F46E5" fill-opacity="0.1"/>
  <circle cx="580" cy="88" r="20" fill="#4F46E5" fill-opacity="0.4"/>
  <circle cx="580" cy="88" r="12" fill="#4F46E5"/>
  <circle cx="464" cy="392" r="40" fill="#4F46E5" fill-opacity="0.1"/>
  <circle cx="464" cy="392" r="30" fill="#4F46E5" fill-opacity="0.2"/>
  <circle cx="464" cy="392" r="20" fill="#4F46E5"/>
  <circle cx="96" cy="180" r="60" fill="#4F46E5" fill-opacity="0.1"/>
  <circle cx="96" cy="180" r="40" fill="#4F46E5" fill-opacity="0.2"/>
  <circle cx="96" cy="180" r="24" fill="#4F46E5"/>
  <circle cx="700" cy="260" r="48" fill="#4F46E5" fill-opacity="0.1"/>
  <circle cx="700" cy="260" r="32" fill="#4F46E5" fill-opacity="0.2"/>
  <circle cx="700" cy="260" r="20" fill="#4F46E5"/>
  <path d="M440 280L480 340L520 280" stroke="#4F46E5" stroke-width="8" stroke-linecap="round" stroke-linejoin="round"/>
  <path d="M350 180L380 300M650 180L620 300" stroke="#4F46E5" stroke-opacity="0.3" stroke-width="4" stroke-linecap="round" stroke-dasharray="8 12"/>
  <defs>
    <filter id="filter0_d" x="188" y="44" width="424" height="320" filterUnits="userSpaceOnUse" color-interpolation-filters="sRGB">
      <feFlood flood-opacity="0" result="BackgroundImageFix"/>
      <feColorMatrix in="SourceAlpha" type="matrix" values="0 0 0 0 0 0 0 0 0 0 0 0 0 0 0 0 0 0 127 0"/>
      <feOffset dy="4"/>
      <feGaussianBlur stdDeviation="6"/>
      <feColorMatrix type="matrix" values="0 0 0 0 0 0 0 0 0 0 0 0 0 0 0 0 0 0 0.1 0"/>
      <feBlend mode="normal" in2="BackgroundImageFix" result="effect1_dropShadow"/>
      <feBlend mode="normal" in="SourceGraphic" in2="effect1_dropShadow" result="shape"/>
    </filter>
  </defs>
</svg> 